<svg width="40" height="40" viewBox="0 0 40 40" fill="none" xmlns="http://www.w3.org/2000/svg">
<g id="time-fast 1" clip-path="url(#clip0_148_89)">
<path id="Vector" d="M15 40H1.66667C1.22464 40 0.800716 39.8244 0.488155 39.5119C0.175595 39.1993 0 38.7754 0 38.3334C0 37.8913 0.175595 37.4674 0.488155 37.1548C0.800716 36.8423 1.22464 36.6667 1.66667 36.6667H15C15.442 36.6667 15.866 36.8423 16.1785 37.1548C16.4911 37.4674 16.6667 37.8913 16.6667 38.3334C16.6667 38.7754 16.4911 39.1993 16.1785 39.5119C15.866 39.8244 15.442 40 15 40Z" fill="#14213D"/>
<path id="Vector_2" d="M11.6667 33.3333H1.66667C1.22464 33.3333 0.800716 33.1577 0.488155 32.8452C0.175595 32.5326 0 32.1087 0 31.6667C0 31.2246 0.175595 30.8007 0.488155 30.4882C0.800716 30.1756 1.22464 30 1.66667 30H11.6667C12.1087 30 12.5326 30.1756 12.8452 30.4882C13.1577 30.8007 13.3333 31.2246 13.3333 31.6667C13.3333 32.1087 13.1577 32.5326 12.8452 32.8452C12.5326 33.1577 12.1087 33.3333 11.6667 33.3333Z" fill="#14213D"/>
<path id="Vector_3" d="M8.33333 26.6666H1.66667C1.22464 26.6666 0.800716 26.4911 0.488155 26.1785C0.175595 25.8659 0 25.442 0 25C0 24.558 0.175595 24.134 0.488155 23.8215C0.800716 23.5089 1.22464 23.3333 1.66667 23.3333H8.33333C8.77536 23.3333 9.19928 23.5089 9.51184 23.8215C9.8244 24.134 10 24.558 10 25C10 25.442 9.8244 25.8659 9.51184 26.1785C9.19928 26.4911 8.77536 26.6666 8.33333 26.6666Z" fill="#14213D"/>
<path id="Vector_4" d="M21.667 39.925C21.2249 39.9447 20.7932 39.7879 20.4667 39.4893C20.1403 39.1906 19.9458 38.7745 19.9261 38.3325C19.9065 37.8905 20.0632 37.4587 20.3618 37.1323C20.6605 36.8058 21.0766 36.6113 21.5186 36.5917C24.6727 36.3031 27.6793 35.1217 30.1862 33.186C32.6931 31.2502 34.5965 28.6402 35.6735 25.6617C36.7505 22.6832 36.9565 19.4594 36.2674 16.368C35.5782 13.2766 34.0225 10.4456 31.7824 8.20651C29.5423 5.96743 26.7105 4.413 23.6188 3.72529C20.5271 3.03758 17.3035 3.24506 14.3254 4.32344C11.3474 5.40182 8.73826 7.30644 6.80367 9.81422C4.86908 12.322 3.68911 15.3291 3.40196 18.4833C3.36218 18.9236 3.14914 19.33 2.80969 19.6132C2.47025 19.8964 2.03222 20.0331 1.59196 19.9933C1.1517 19.9536 0.74528 19.7405 0.4621 19.4011C0.17892 19.0616 0.0421808 18.6236 0.0819633 18.1833C0.546778 13.0555 2.9713 8.30451 6.85084 4.91928C10.7304 1.53406 15.766 -0.224551 20.9095 0.00952816C26.0531 0.243608 30.9082 2.45234 34.4642 6.17595C38.0202 9.89957 40.0032 14.8512 40.0003 20C40.0258 24.9972 38.1693 29.821 34.8001 33.5117C31.4309 37.2024 26.7958 39.4896 21.817 39.9183C21.767 39.9233 21.7153 39.925 21.667 39.925Z" fill="#14213D"/>
<path id="Vector_5" d="M19.9997 10C19.5576 10 19.1337 10.1756 18.8212 10.4882C18.5086 10.8007 18.333 11.2246 18.333 11.6667V20C18.3331 20.442 18.5088 20.8658 18.8213 21.1783L23.8213 26.1783C24.1357 26.4819 24.5567 26.6499 24.9937 26.6461C25.4307 26.6423 25.8487 26.467 26.1577 26.158C26.4667 25.849 26.642 25.431 26.6458 24.994C26.6496 24.557 26.4816 24.136 26.178 23.8217L21.6663 19.31V11.6667C21.6663 11.2246 21.4907 10.8007 21.1782 10.4882C20.8656 10.1756 20.4417 10 19.9997 10Z" fill="#14213D"/>
</g>
<defs>
<clipPath id="clip0_148_89">
<rect width="40" height="40" fill="white"/>
</clipPath>
</defs>
</svg>
