<svg width="30" height="30" viewBox="0 0 30 30" fill="none" xmlns="http://www.w3.org/2000/svg">
<path d="M30.0002 15C30.0002 12.9675 29.1077 11.05 27.594 9.84504C27.769 7.81754 27.044 5.83129 25.6065 4.39254C24.169 2.95629 22.1877 2.23254 20.2602 2.44879C17.7427 -0.74621 12.304 -0.80621 9.84524 2.40504C7.81524 2.22504 5.83149 2.95379 4.39399 4.39254C2.95774 5.83004 2.23274 7.81754 2.45024 9.73879C-0.744761 12.2563 -0.806011 17.695 2.40649 20.155C2.23149 22.1825 2.95649 24.1688 4.39399 25.6075C5.83149 27.0438 7.81524 27.77 9.74024 27.5513C12.2577 30.7463 17.6965 30.8063 20.1552 27.595C22.1802 27.765 24.1677 27.0463 25.6065 25.6075C27.0427 24.17 27.7677 22.1825 27.5502 20.2613C29.1077 18.9513 30.0002 17.0338 30.0002 15.0013V15ZM21.9252 13.2075L16.0015 18.9175C14.5477 20.3688 12.169 20.3563 10.7152 18.9013L7.90024 16.2863C7.39524 15.8163 7.36524 15.025 7.83524 14.52C8.30649 14.0138 9.09899 13.9863 9.60149 14.455L12.449 17.1013C12.9715 17.6225 13.7615 17.6213 14.249 17.1325L20.189 11.4063C20.6865 10.9288 21.4777 10.9425 21.9565 11.4388C22.4365 11.935 22.4215 12.7275 21.9252 13.2063V13.2075Z" fill="#14213D"/>
</svg>
