<svg width="18" height="10" viewBox="0 0 18 10" fill="none" xmlns="http://www.w3.org/2000/svg">
<path d="M0.612486 1.26232C0.728689 1.14516 0.86694 1.05217 1.01926 0.98871C1.17159 0.925249 1.33497 0.892577 1.49998 0.892577C1.665 0.892577 1.82838 0.925249 1.98071 0.98871C2.13303 1.05217 2.27128 1.14516 2.38748 1.26232L8.11248 6.98733C8.22869 7.10449 8.36694 7.19748 8.51926 7.26094C8.67159 7.3244 8.83497 7.35707 8.99998 7.35707C9.165 7.35707 9.32838 7.3244 9.48071 7.26094C9.63303 7.19748 9.77128 7.10449 9.88748 6.98733L15.6125 1.26233C15.7287 1.14517 15.8669 1.05217 16.0193 0.988711C16.1716 0.92525 16.335 0.892578 16.5 0.892578C16.665 0.892578 16.8284 0.925251 16.9807 0.988711C17.133 1.05217 17.2713 1.14517 17.3875 1.26233C17.6203 1.49653 17.751 1.81334 17.751 2.14358C17.751 2.47381 17.6203 2.79062 17.3875 3.02483L11.65 8.76233C10.9469 9.46458 9.99374 9.85903 8.99998 9.85903C8.00623 9.85903 7.05311 9.46458 6.34998 8.76233L0.612486 3.02482C0.379671 2.79062 0.248993 2.47381 0.248993 2.14357C0.248993 1.81334 0.379671 1.49653 0.612486 1.26232Z" fill="#14213D"/>
</svg>
